<svg xmlns="http://www.w3.org/2000/svg" viewBox="0 0 512 512">
    <!--!Font Awesome Free 6.5.1 by @fontawesome - https://fontawesome.com License - https://fontawesome.com/license/free Copyright 2024 Fonticons, Inc.-->
    <path fill="#FFB000" d="M192 208c0-17.7 14.3-32 32-32h64c17.7 0 32 14.3 32 32v112c0 17.7-14.3 32-32 32h-64c-17.7 0-32-14.3-32-32V208zm160 112v112c0 17.7 14.3 32 32 32h48c44.2 0 80-35.8 80-80V272c0-141.4-114.6-256-256-256S0 130.6 0 272v112c0 44.2 35.8 80 80 80h48c17.7 0 32-14.3 32-32V320c0-17.7-14.3-32-32-32H80V272c0-97.2 78.8-176 176-176s176 78.8 176 176v16h-48c-17.7 0-32 14.3-32 32z"/>
</svg>
